HIERARCHY
ROOT Hips
{
 OFFSET 0.000000 0.000000 0.000000
 CHANNELS 6 Xposition Yposition Zposition Yrotation Xrotation Zrotation
 JOINT Chest
 {
  OFFSET 0.000000 9.857222 0.000240
  CHANNELS 3 Yrotation Xrotation Zrotation
  JOINT Chest2
  {
   OFFSET 0.000000 10.876940 -0.000436
   CHANNELS 3 Yrotation Xrotation Zrotation
   JOINT Chest3
   {
    OFFSET 0.000000 9.827798 0.000000
    CHANNELS 3 Yrotation Xrotation Zrotation
    JOINT Chest4
    {
     OFFSET 0.000000 9.827798 0.000000
     CHANNELS 3 Yrotation Xrotation Zrotation
     JOINT Neck
     {
      OFFSET 0.000000 13.831992 0.000000
      CHANNELS 3 Yrotation Xrotation Zrotation
      JOINT Head
      {
       OFFSET 0.000000 9.147643 -0.001036
       CHANNELS 3 Yrotation Xrotation Zrotation
       End Site
       {
        OFFSET 0.000000 17.515799 -0.000541
       }
      }
     }
     JOINT RightCollar
     {
      OFFSET -3.001579 7.717577 0.000000
      CHANNELS 3 Yrotation Xrotation Zrotation
      JOINT RightShoulder
      {
       OFFSET -14.002642 0.000000 0.000000
       CHANNELS 3 Yrotation Xrotation Zrotation
       JOINT RightElbow
       {
        OFFSET -30.053852 0.000000 0.000000
        CHANNELS 3 Yrotation Xrotation Zrotation
        JOINT RightWrist
        {
         OFFSET -24.564923 0.000000 -0.000000
         CHANNELS 3 Yrotation Xrotation Zrotation
         End Site
         {
          OFFSET -18.334355 0.000000 0.000000
         }
        }
       }
      }
     }
     JOINT LeftCollar
     {
      OFFSET 3.001579 7.717577 0.000000
      CHANNELS 3 Yrotation Xrotation Zrotation
      JOINT LeftShoulder
      {
       OFFSET 14.002642 0.000000 0.000000
       CHANNELS 3 Yrotation Xrotation Zrotation
       JOINT LeftElbow
       {
        OFFSET 30.053852 0.000000 0.000000
        CHANNELS 3 Yrotation Xrotation Zrotation
        JOINT LeftWrist
        {
         OFFSET 24.564923 0.000000 -0.000000
         CHANNELS 3 Yrotation Xrotation Zrotation
         End Site
         {
          OFFSET 18.334355 0.000000 0.000000
         }
        }
       }
      }
     }
    }
   }
  }
 }
 JOINT RightHip
 {
  OFFSET -8.003235 -0.001175 -0.000120
  CHANNELS 3 Yrotation Xrotation Zrotation
  JOINT RightKnee
  {
   OFFSET 0.000000 -41.759727 0.000113
   CHANNELS 3 Yrotation Xrotation Zrotation
   JOINT RightAnkle
   {
    OFFSET 0.000000 -40.728748 0.000159
    CHANNELS 3 Yrotation Xrotation Zrotation
    JOINT RightToe
    {
     OFFSET 0.000000 -6.515296 14.732841
     CHANNELS 3 Yrotation Xrotation Zrotation
     End Site
     {
      OFFSET 0.000000 -1.502839 6.412115
     }
    }
   }
  }
 }
 JOINT LeftHip
 {
  OFFSET 8.003235 -0.001175 -0.000120
  CHANNELS 3 Yrotation Xrotation Zrotation
  JOINT LeftKnee
  {
   OFFSET 0.000000 -41.759727 0.000113
   CHANNELS 3 Yrotation Xrotation Zrotation
   JOINT LeftAnkle
   {
    OFFSET 0.000000 -40.728748 0.000159
    CHANNELS 3 Yrotation Xrotation Zrotation
    JOINT LeftToe
    {
     OFFSET 0.000000 -6.515296 14.732841
     CHANNELS 3 Yrotation Xrotation Zrotation
     End Site
     {
      OFFSET 0.000000 -1.502839 6.412115
     }
    }
   }
  }
 }
}
MOTION
Frames: 12
Frame Time: 0.016667
-3.784637 89.950356 15.343826 -35.434964 -9.274362 -1.639794 2.191315 -0.178066 2.585259 0.950259 -0.080295 0.800084 0.950259 -0.080295 0.800084 0.712801 -0.058977 0.600190 -4.396611 29.828791 0.042995 -7.803713 19.301653 0.863884 4.846851 24.406281 14.281019 36.568581 -6.934065 69.053503 26.405315 0.131470 -1.598363 -5.368551 5.969615 -4.483258 -28.284076 29.180023 -24.117429 -34.184051 12.547645 -66.270247 -46.820533 -23.031164 24.656049 6.976908 -0.527263 21.225754 3.004315 11.160048 4.091436 8.070370 6.428437 1.467703 -0.274463 -7.758766 -1.877812 -0.042045 -0.122936 -0.012145 12.026610 -0.565717 12.874557 30.501163 49.931789 10.480608 -14.179655 5.844979 -38.312655 -7.315359 -35.290030 28.854056
-3.816619 89.917958 15.340242 -35.359563 -9.155992 -1.576855 2.104749 -0.258526 2.465886 0.950882 -0.088192 0.802172 0.950882 -0.088192 0.802172 0.713279 -0.064896 0.601768 -4.395655 29.811663 0.054284 -7.804213 19.270543 0.884660 4.827628 24.343910 14.277929 36.475441 -6.893659 69.055882 26.763585 0.229616 -1.572590 -5.363531 5.928334 -4.477097 -28.231430 29.114261 -24.104869 -34.046770 12.515185 -66.376619 -46.229687 -23.236885 24.343823 6.916461 -0.576920 21.174632 2.749640 11.074480 3.986153 8.180483 6.452938 1.486081 -0.228771 -7.912228 -1.890888 -0.035775 -0.006045 -0.028961 10.225528 -0.323702 13.304590 29.070648 50.788829 8.985100 -14.604259 4.966288 -39.895433 -6.996645 -34.139832 30.476906
-3.849459 89.888033 15.353866 -35.277000 -9.064665 -1.484482 2.024081 -0.311758 2.319708 0.946774 -0.093514 0.798308 0.946774 -0.093514 0.798308 0.710204 -0.068899 0.598878 -4.389479 29.790353 0.072760 -7.796799 19.231909 0.917471 4.822474 24.292479 14.292580 36.433987 -6.868474 69.068195 26.973085 0.286231 -1.547875 -5.352892 5.907159 -4.469370 -28.172462 29.072261 -24.083735 -33.821596 12.428289 -66.460726 -45.618754 -23.399725 23.994635 6.874186 -0.612510 21.122945 2.480542 11.040115 3.840477 8.331321 6.450921 1.513902 -0.233304 -8.065460 -1.888938 -0.027295 0.113226 -0.050458 8.295067 0.050381 13.686667 27.710126 51.455283 7.500684 -15.288775 3.792908 -41.591190 -5.947193 -32.033540 31.951095
-3.891717 89.862714 15.371641 -35.209606 -8.960679 -1.417587 1.975527 -0.352222 2.198351 0.942690 -0.104538 0.787899 0.942690 -0.104538 0.787899 0.707153 -0.077188 0.591087 -4.380920 29.764830 0.104919 -7.787685 19.186215 0.974323 4.816418 24.241479 14.322518 36.427476 -6.871567 69.091505 27.032624 0.331360 -1.531146 -5.347277 5.889708 -4.438479 -28.127935 29.053725 -24.044966 -33.561405 12.302425 -66.520018 -44.990167 -23.582351 23.616695 6.842262 -0.631725 21.056265 2.307656 11.000287 3.744685 8.443092 6.424151 1.526863 -0.245172 -8.164569 -1.872150 -0.020100 0.193031 -0.074407 6.279938 0.488204 14.078582 26.752700 51.867204 6.359765 -16.298215 2.365708 -43.504597 -4.133307 -29.006025 33.283889
-3.946071 89.841861 15.384304 -35.152609 -8.877777 -1.420395 1.961721 -0.362787 2.148702 0.936184 -0.117376 0.776545 0.936184 -0.117376 0.776545 0.702288 -0.086843 0.582590 -4.376177 29.736500 0.142330 -7.786342 19.135806 1.041310 4.812514 24.208228 14.350766 36.450137 -6.912287 69.130146 26.952172 0.315411 -1.495274 -5.356908 5.888486 -4.424397 -28.101592 29.044685 -24.006409 -33.351367 12.191495 -66.558957 -44.359177 -23.805427 23.242495 6.798910 -0.650630 20.993268 2.244639 10.959166 3.749711 8.485125 6.416176 1.539120 -0.258117 -8.227452 -1.860798 -0.017131 0.235639 -0.095616 4.221642 0.999635 14.512929 25.764055 52.099740 5.288331 -17.222623 0.704770 -45.530310 -0.568747 -20.518861 26.140133
-3.997235 89.826261 15.388037 -35.087738 -8.829715 -1.428080 1.956983 -0.363580 2.096193 0.932020 -0.121039 0.770632 0.932020 -0.121039 0.770632 0.699169 -0.089604 0.578160 -4.381137 29.709922 0.178436 -7.801982 19.088989 1.107618 4.814209 24.175919 14.382471 36.507776 -6.946324 69.207037 26.758530 0.237595 -1.481693 -5.379781 5.887525 -4.416763 -28.086181 29.042561 -23.979067 -33.247268 12.152277 -66.574133 -43.770631 -24.048554 22.936337 6.756865 -0.667073 20.923236 2.250292 10.930551 3.782864 8.496423 6.429866 1.539174 -0.291175 -8.259136 -1.846199 -0.016096 0.245358 -0.109010 1.851274 1.683435 14.992976 24.837141 52.203764 4.073872 -18.046948 -1.219743 -47.619926 1.514907 -13.289189 20.448073
-4.033287 89.814384 15.393820 -35.044356 -8.807536 -1.360625 1.990180 -0.328914 1.968207 0.930044 -0.126003 0.769265 0.930044 -0.126003 0.769265 0.697693 -0.093332 0.577142 -4.392191 29.687084 0.212634 -7.828066 19.049269 1.171432 4.819819 24.146870 14.415212 36.609670 -6.962924 69.313726 26.475157 0.106814 -1.547256 -5.401658 5.892625 -4.366493 -28.088078 29.040272 -23.965354 -33.266501 12.195950 -66.573920 -43.224713 -24.335823 22.696766 6.717795 -0.695013 20.858097 2.313373 10.902365 3.754046 8.472987 6.483130 1.531226 -0.333545 -8.300921 -1.828587 -0.013453 0.250830 -0.112482 -0.791661 2.676053 15.343332 24.313842 51.859059 2.941730 -18.861046 -3.378155 -49.838533 2.768197 -7.547087 15.965989
-4.068151 89.804349 15.378014 -34.958206 -8.806898 -1.402698 1.995274 -0.302576 1.950720 0.926928 -0.118436 0.770144 0.926928 -0.118436 0.770144 0.695347 -0.087659 0.577789 -4.407139 29.667311 0.242978 -7.860339 19.015182 1.228953 4.835659 24.128243 14.442724 36.724578 -6.971224 69.426133 26.131881 -0.062994 -1.614744 -5.429060 5.899486 -4.323064 -28.097855 29.040732 -23.958164 -33.385413 12.291317 -66.562586 -42.727913 -24.674136 22.520143 6.678511 -0.738235 20.802667 2.349801 10.878779 3.837228 8.403578 6.543336 1.518348 -0.326767 -8.326389 -1.823057 -0.013850 0.249505 -0.110281 -3.290307 3.616106 15.847525 23.658019 51.532664 1.856858 -19.549736 -5.509485 -51.803812 3.239603 -3.453326 12.318875
-4.087581 89.801494 15.376750 -34.878897 -8.869355 -1.416317 2.017472 -0.231959 1.922982 0.926372 -0.096563 0.770781 0.926372 -0.096563 0.770781 0.694902 -0.071255 0.578233 -4.425595 29.645056 0.272261 -7.898691 18.976604 1.285371 4.848175 24.115364 14.467774 36.860828 -6.975076 69.530086 25.745960 -0.265581 -1.676448 -5.463607 5.906515 -4.303948 -28.112637 29.032012 -23.945879 -33.535298 12.390939 -66.552734 -42.316151 -25.048413 22.397241 6.656893 -0.755114 20.745229 2.331474 10.939768 3.864489 8.343246 6.569924 1.514007 -0.306332 -8.335935 -1.817422 -0.013783 0.245590 -0.102327 -5.378187 4.686244 16.265233 22.477368 50.907639 0.618073 -20.058244 -7.564892 -53.417672 3.288643 -0.745877 9.385044
-4.089126 89.805707 15.389937 -34.813587 -8.926979 -1.401977 2.048802 -0.155276 1.883198 0.929104 -0.072674 0.770733 0.929104 -0.072674 0.770733 0.696921 -0.053334 0.578162 -4.443367 29.621340 0.300875 -7.935746 18.935266 1.340577 4.856237 24.086564 14.493826 37.002105 -6.956469 69.625833 25.324355 -0.475741 -1.733788 -5.489655 5.920617 -4.276252 -28.124167 29.021723 -23.927882 -33.682315 12.471651 -66.547570 -41.987388 -25.420214 22.299004 6.639873 -0.761243 20.675520 2.277924 11.017106 3.833357 8.326304 6.562016 1.518512 -0.290194 -8.330989 -1.806567 -0.012440 0.239706 -0.090041 -7.256772 5.871161 16.488562 20.639833 49.919735 -1.059853 -20.277604 -9.434302 -54.434805 3.048172 0.834328 6.991665
-4.077119 89.814527 15.410336 -34.786465 -8.973487 -1.374105 2.099236 -0.082904 1.844608 0.936829 -0.049857 0.773671 0.936829 -0.049857 0.773671 0.702686 -0.036207 0.580331 -4.458306 29.601338 0.323749 -7.966693 18.900340 1.384906 4.866078 24.055854 14.520340 37.133540 -6.920107 69.712947 24.881209 -0.664717 -1.771950 -5.518634 5.943377 -4.251014 -28.127640 29.014621 -23.904405 -33.791454 12.513986 -66.553500 -41.723206 -25.723479 22.187936 6.623226 -0.767529 20.608416 2.257336 11.090990 3.787072 8.326832 6.523168 1.514715 -0.285512 -8.264771 -1.786452 -0.010832 0.192959 -0.076012 -8.878585 7.142223 16.584599 18.225808 48.633734 -3.063415 -20.022371 -11.169467 -55.096904 2.696156 1.682348 5.130973
-4.075989 89.829841 15.436195 -34.816994 -9.083871 -1.404442 2.187199 0.027477 1.879798 0.950985 -0.023228 0.783159 0.950985 -0.023228 0.783159 0.713270 -0.016202 0.587407 -4.472646 29.589714 0.337231 -7.994757 18.880322 1.412023 4.874020 24.023669 14.551766 37.234392 -6.852276 69.797389 24.427936 -0.806653 -1.805830 -5.553771 5.969774 -4.217197 -28.134547 29.010302 -23.887744 -33.818525 12.518025 -66.573869 -41.539401 -25.914372 22.073612 6.610699 -0.764658 20.565766 2.336924 11.222719 3.833929 8.332908 6.490508 1.488308 -0.308399 -8.216599 -1.762832 -0.010507 0.158080 -0.060459 -9.980985 8.506655 16.664161 14.331609 47.188174 -5.836462 -19.096017 -12.910990 -55.115193 2.213285 1.971401 3.585604
